/* XPM */
static char *bitcoin64[] = {
/* columns rows colors chars-per-pixel */
"64 64 152 2 ",
"   c black",
".  c #010101",
"X  c #020202",
"o  c #030303",
"O  c #040404",
"+  c #050505",
"@  c #060606",
"#  c #080808",
"$  c #090909",
"%  c #0A0A0A",
"&  c #0B0B0B",
"*  c #0C0C0C",
"=  c #0D0D0D",
"-  c #0E0E0E",
";  c #0F0F0F",
":  c #101010",
">  c #111111",
",  c #121212",
"<  c #131313",
"1  c #141414",
"2  c #151515",
"3  c #161616",
"4  c #171717",
"5  c #181818",
"6  c #191919",
"7  c #1A1A1A",
"8  c #1B1B1B",
"9  c #1C1C1C",
"0  c #1D1D1D",
"q  c #1E1E1E",
"w  c #202020",
"e  c #212121",
"r  c #232323",
"t  c #242424",
"y  c #252525",
"u  c #262626",
"i  c #282828",
"p  c #292929",
"a  c #2A2A2A",
"s  c #2B2B2B",
"d  c #2C2C2C",
"f  c #2D2D2D",
"g  c #323232",
"h  c #333333",
"j  c #353535",
"k  c #363636",
"l  c #373737",
"z  c #383838",
"x  c #393939",
"c  c #3E3E3E",
"v  c #414141",
"b  c #424242",
"n  c #4A4A4A",
"m  c #4B4B4B",
"M  c #4E4E4E",
"N  c #4F4F4F",
"B  c #515151",
"V  c #525252",
"C  c gray33",
"Z  c #555555",
"A  c #585858",
"S  c #595959",
"D  c #5B5B5B",
"F  c #5C5C5C",
"G  c #5F5F5F",
"H  c #606060",
"J  c #626262",
"K  c #656565",
"L  c #666666",
"P  c #686868",
"I  c #6B6B6B",
"U  c #6C6C6C",
"Y  c #6E6E6E",
"T  c #707070",
"R  c #767676",
"E  c #777777",
"W  c #797979",
"Q  c #7A7A7A",
"!  c #7B7B7B",
"~  c #7D7D7D",
"^  c #7E7E7E",
"/  c #7F7F7F",
"(  c #838383",
")  c #848484",
"_  c #888888",
"`  c #8C8C8C",
"'  c #929292",
"]  c #959595",
"[  c #969696",
"{  c #999999",
"}  c #9A9A9A",
"|  c #9B9B9B",
" . c #9F9F9F",
".. c #A0A0A0",
"X. c #A3A3A3",
"o. c #A4A4A4",
"O. c #ABABAB",
"+. c #ADADAD",
"@. c #AEAEAE",
"#. c #B2B2B2",
"$. c #B3B3B3",
"%. c #B4B4B4",
"&. c #B5B5B5",
"*. c #B6B6B6",
"=. c #B7B7B7",
"-. c #B8B8B8",
";. c #B9B9B9",
":. c #BABABA",
">. c #BCBCBC",
",. c #BDBDBD",
"<. c #C0C0C0",
"1. c #C1C1C1",
"2. c #C2C2C2",
"3. c #C3C3C3",
"4. c #C5C5C5",
"5. c #C6C6C6",
"6. c #CACACA",
"7. c #CBCBCB",
"8. c #CDCDCD",
"9. c #CECECE",
"0. c #D1D1D1",
"q. c #D2D2D2",
"w. c #D3D3D3",
"e. c #D5D5D5",
"r. c #D6D6D6",
"t. c #D7D7D7",
"y. c #D8D8D8",
"u. c #D9D9D9",
"i. c #DADADA",
"p. c #DBDBDB",
"a. c #DCDCDC",
"s. c #DDDDDD",
"d. c #E4E4E4",
"f. c #E5E5E5",
"g. c #EAEAEA",
"h. c #EBEBEB",
"j. c #ECECEC",
"k. c #EDEDED",
"l. c #EEEEEE",
"z. c #F2F2F2",
"x. c #F3F3F3",
"c. c #F6F6F6",
"v. c #F7F7F7",
"b. c #F8F8F8",
"n. c #F9F9F9",
"m. c #FAFAFA",
"M. c #FBFBFB",
"N. c #FCFCFC",
"B. c #FDFDFD",
"V. c #FEFEFE",
"C. c #FFFFFF",
"Z. c None",
/* pixels */
"Z.Z.Z.Z.Z.Z.Z.Z.Z.Z.Z.Z.Z.Z.Z.Z.Z.Z.Z.Z.Z.Z.Z.Z.Z.Z.                        Z.Z.Z.Z.Z.Z.Z.Z.Z.Z.Z.Z.Z.Z.Z.Z.Z.Z.Z.Z.Z.Z.Z.Z.Z.Z.",
"Z.Z.Z.Z.Z.Z.Z.Z.Z.Z.Z.Z.Z.Z.Z.Z.Z.Z.Z.Z.Z.Z.      Z.Z.      Z.Z.Z.Z.Z.      Z.      Z.Z.Z.Z.Z.Z.Z.Z.Z.Z.Z.Z.Z.Z.Z.Z.Z.Z.Z.Z.Z.Z.",
"Z.Z.Z.Z.Z.Z.Z.Z.Z.Z.Z.Z.Z.Z.Z.Z.Z.Z.Z.Z.    Z.Z.Z.Z.                        Z.Z.Z.Z.    Z.Z.Z.Z.Z.Z.Z.Z.Z.Z.Z.Z.Z.Z.Z.Z.Z.Z.Z.Z.",
"Z.Z.Z.Z.Z.Z.Z.Z.Z.Z.Z.Z.Z.Z.Z.Z.Z.      Z.Z.Z.                                    Z.Z.Z.      Z.Z.Z.Z.Z.Z.Z.Z.Z.Z.Z.Z.Z.Z.Z.Z.Z.",
"Z.Z.Z.Z.Z.Z.Z.Z.Z.Z.Z.Z.Z.Z.Z.Z.                      = 0 i x k x x d 5 #                       Z.Z.Z.Z.Z.Z.Z.Z.Z.Z.Z.Z.Z.Z.Z.Z.",
"Z.Z.Z.Z.Z.Z.Z.Z.Z.Z.Z.Z.Z.Z.    Z.Z.          = h P | <.s.j.n.| o.x.j.s.5.} P k =             Z.    Z.Z.Z.Z.Z.Z.Z.Z.Z.Z.Z.Z.Z.Z.",
"Z.Z.Z.Z.Z.Z.Z.Z.Z.Z.Z.Z.Z.  Z.Z.        O i E <.j.V.V.V.V.V.n.Z A V.V.V.V.V.V.j.<.! i O         Z.Z.  Z.Z.Z.Z.Z.Z.Z.Z.Z.Z.Z.Z.Z.",
"Z.Z.Z.Z.Z.Z.Z.Z.Z.Z.Z.    Z.Z.      O x } f.V.V.V.V.V.V.V.V.y.0 0 y.V.V.V.V.V.V.V.V.f.} x O       Z.Z.    Z.Z.Z.Z.Z.Z.Z.Z.Z.Z.Z.",
"Z.Z.Z.Z.Z.Z.Z.Z.Z.Z.    Z.        u ' h.V.V.V.V.V.V.V.V.V.V.]     } V.V.V.V.V.V.V.V.V.V.j.' u         Z.    Z.Z.Z.Z.Z.Z.Z.Z.Z.Z.",
"Z.Z.Z.Z.Z.Z.Z.Z.Z.            # H y.V.V.V.V.V.V.V.V.V.V.V.x.m     B n.V.V.V.V.V.V.V.V.V.V.V.y.F #             Z.Z.Z.Z.Z.Z.Z.Z.Z.",
"Z.Z.Z.Z.Z.Z.Z.Z.            5 ] x.V.V.V.V.V.V.V.V.V.V.V.V.9.4     4 q.V.V.V.V.V.V.V.V.V.V.V.V.x.] 5             Z.Z.Z.Z.Z.Z.Z.Z.",
"Z.Z.Z.Z.Z.Z.Z.  Z.Z.      i -.V.V.V.V.V.V.V.V.V.V.V.V.V.V._         ` V.V.V.V.V.V.V.V.V.V.V.V.V.V.-.i       Z.Z.  Z.Z.Z.Z.Z.Z.Z.",
"Z.Z.Z.Z.Z.Z.Z.  Z.      0 +.V.V.V.V.V.V.V.V.V.V.V.V.V.V.x.b         b x.V.V.V.V.V.V.V.V.V.V.V.V.V.V.O.0       Z.  Z.Z.Z.Z.Z.Z.Z.",
"Z.Z.Z.Z.Z.Z.  Z.      i O.Z ) s.V.V.V.V.V.V.V.V.V.V.V.V.<.=         = 5.V.V.V.V.V.V.V.V.V.V.V.V.y.( Z +.i       Z.  Z.Z.Z.Z.Z.Z.",
"Z.Z.Z.Z.Z.  Z.Z.    5 -.V.^   r ^ t.V.V.V.V.V.V.V.V.V.V.!             ^ V.V.V.V.V.V.V.V.V.V.q.! r   ) V.-.5     Z.Z.  Z.Z.Z.Z.Z.",
"Z.Z.Z.Z.Z.  Z.    # ] V.V.y.r     0 U 9.V.V.V.V.V.V.V.j.k             k j.V.V.V.V.V.V.n.9.P 5     u s.V.V.] #     Z.Z.Z.Z.Z.Z.Z.",
"Z.Z.Z.Z.          H x.V.V.V.E         4 K 5.n.V.V.V.V.%.#             = -.V.V.V.V.n.5.H 4         ! V.V.V.x.H       Z.  Z.Z.Z.Z.",
"Z.Z.Z.Z.        u t.V.V.V.V.t.5           : F ,.n.V.V.U                 U V.V.x.-.A :           0 t.V.V.V.V.y.i         Z.Z.Z.Z.",
"Z.Z.Z.        O ' V.V.V.V.V.V.U               = B %.y.i                 d y.%.N =               T V.V.V.V.V.V.'           Z.Z.Z.",
"Z.Z.Z.Z.Z.    x h.V.V.V.V.V.V.7.4                 = d #                 # d =                 4 9.V.V.V.V.V.V.h.x     Z.Z.Z.Z.Z.",
"Z.Z.  Z.      } V.V.V.V.V.V.V.V.K                                                             K V.V.V.V.V.V.V.V.} O     Z.  Z.Z.",
"Z.Z.  Z.    d f.V.V.V.V.V.V.V.V.<.:                                                         4 5.V.V.V.V.V.V.V.V.f.d     Z.  Z.Z.",
"Z.  Z.Z.    E V.V.V.V.V.V.V.V.V.n.A                                                         F n.V.V.V.V.V.V.V.V.V.E     Z.Z.  Z.",
"Z.  Z.    = <.V.V.V.V.V.V.V.V.V.V.-.=                                                     = ,.V.V.V.V.V.V.V.V.V.V.,.=     Z.  Z.",
"Z.  Z.    k j.V.V.V.V.V.V.V.V.V.V.x.B                                                     B x.V.V.V.V.V.V.V.V.V.V.j.k     Z.  Z.",
"Z.        P V.V.V.V.V.V.V.V.V.V.V.V.%.#                                                 = %.V.V.V.V.V.V.V.V.V.V.V.V.P         Z.",
"          | V.V.V.V.V.V.V.V.V.V.V.V.y.d                                                 d y.V.V.V.V.V.V.V.V.V.V.V.V.}           ",
"        = <.V.V.V.V.V.V.V.V.V.j.-.T d O                                                 O i U -.j.V.V.V.V.V.V.V.V.V.<.=         ",
"  Z.    5 s.V.V.V.V.V.V.x.5.^ k #                                                             # h ! <.z.V.V.V.V.V.V.y.0     Z.  ",
"  Z.    d h.V.V.V.n.q.` b :                                                                         = c ) 9.x.V.V.V.h.d     Z.  ",
"  Z.    x z.V.y.} B 4                                                                                     4 m } y.V.x.x     Z.  ",
"  Z.    k o.A 0                                                                                                 5 B | k     Z.  ",
"  Z.    k X.Z 5                                                                                                 0 A X.k     Z.  ",
"  Z.    k z.V.y.] m 4                                                                                     4 N } y.V.z.x     Z.  ",
"  Z.    i h.V.V.V.n.9._ c =                                                                         : b ` q.n.V.V.V.h.d     Z.  ",
"        0 y.V.V.V.V.V.V.x.<.! k #                                                             # k ^ 5.x.V.V.V.V.V.V.s.5         ",
"        # 5.V.V.V.V.V.V.V.V.V.j.-.U i O                                                 O d U -.j.V.V.V.V.V.V.V.V.V.5.#         ",
"          } V.V.V.V.V.V.V.V.V.V.V.V.y.d                                                 d y.V.V.V.V.V.V.V.V.V.V.V.V.}           ",
"Z.Z.Z.    P V.V.V.V.V.V.V.V.V.V.V.V.%.=                                                 = $.V.V.V.V.V.V.V.V.V.V.V.V.P     Z.Z.Z.",
"Z.  Z.    k j.V.V.V.V.V.V.V.V.V.V.n.B                                                     N x.V.V.V.V.V.V.V.V.V.V.j.h     Z.  Z.",
"Z.  Z.    = <.V.V.V.V.V.V.V.V.V.V.,.:                                                     : -.V.V.V.V.V.V.V.V.V.V.<.=     Z.  Z.",
"Z.  Z.Z.    E V.V.V.V.V.V.V.V.V.n.F                                                         A n.V.V.V.V.V.V.V.V.V.E     Z.Z.Z.Z.",
"Z.Z.  Z.    d f.V.V.V.V.V.V.V.V.5.:                                                         : <.V.V.V.V.V.V.V.V.f.d     Z.  Z.Z.",
"Z.Z.  Z.      } V.V.V.V.V.V.V.V.K                                                             H V.V.V.V.V.V.V.V.}       Z.  Z.Z.",
"Z.Z.Z.        x h.V.V.V.V.V.V.9.5                 # d #                 O d =                 4 7.V.V.V.V.V.V.h.x         Z.Z.Z.",
"Z.Z.Z.          ' V.V.V.V.V.V.T               = N %.y.d                 d y.%.B =               P V.V.V.V.V.V.'           Z.Z.Z.",
"Z.Z.Z.          i y.V.V.V.V.t.0           : A -.x.V.V.T                 U V.V.n.,.F :           0 q.V.V.V.V.y.u         Z.Z.Z.Z.",
"Z.Z.Z.Z.  Z.      H x.V.V.V.!         4 H 5.n.V.V.V.V.-.#             # %.V.V.V.V.n.7.K 4         E V.V.V.x.H       Z.  Z.Z.Z.Z.",
"Z.Z.Z.Z.Z.  Z.    # ] V.V.s.u     5 U 9.n.V.V.V.V.V.V.j.k             h j.V.V.V.V.V.V.V.9.U 0     r y.V.V.] #     Z.  Z.Z.Z.Z.Z.",
"Z.Z.Z.Z.Z.  Z.Z.    5 -.V.)   r E q.V.V.V.V.V.V.V.V.V.V.^             ! V.V.V.V.V.V.V.V.V.V.t.^ r   ^ V.-.5     Z.Z.  Z.Z.Z.Z.Z.",
"Z.Z.Z.Z.Z.Z.  Z.      i +.Z ^ y.V.V.V.V.V.V.V.V.V.V.V.V.5.:         = 5.V.V.V.V.V.V.V.V.V.V.V.V.s.) Z +.i       Z.  Z.Z.Z.Z.Z.Z.",
"Z.Z.Z.Z.Z.Z.Z.  Z.      0 O.V.V.V.V.V.V.V.V.V.V.V.V.V.V.z.b         c z.V.V.V.V.V.V.V.V.V.V.V.V.V.V.+.0       Z.  Z.Z.Z.Z.Z.Z.Z.",
"Z.Z.Z.Z.Z.Z.Z.            i -.V.V.V.V.V.V.V.V.V.V.V.V.V.V.`         ) V.V.V.V.V.V.V.V.V.V.V.V.V.V.-.i       Z.Z.  Z.Z.Z.Z.Z.Z.Z.",
"Z.Z.Z.Z.Z.Z.Z.Z.            5 ] x.V.V.V.V.V.V.V.V.V.V.V.V.q.5     4 9.V.V.V.V.V.V.V.V.V.V.V.V.x.] 5             Z.Z.Z.Z.Z.Z.Z.Z.",
"Z.Z.Z.Z.Z.Z.Z.Z.Z.    Z.      # F y.V.V.V.V.V.V.V.V.V.V.V.n.N     N x.V.V.V.V.V.V.V.V.V.V.V.y.F #       Z.    Z.Z.Z.Z.Z.Z.Z.Z.Z.",
"Z.Z.Z.Z.Z.Z.Z.Z.Z.Z.  Z.Z.        u ' h.V.V.V.V.V.V.V.V.V.V.}     ] V.V.V.V.V.V.V.V.V.V.h.] u         Z.Z.  Z.Z.Z.Z.Z.Z.Z.Z.Z.Z.",
"Z.Z.Z.Z.Z.Z.Z.Z.Z.Z.Z.    Z.Z.      O x } f.V.V.V.V.V.V.V.V.y.r 5 y.V.V.V.V.V.V.V.V.f.} k O       Z.Z.    Z.Z.Z.Z.Z.Z.Z.Z.Z.Z.Z.",
"Z.Z.Z.Z.Z.Z.Z.Z.Z.Z.Z.Z.Z.  Z.Z.        O i E <.j.V.V.V.V.V.V.A Z n.V.V.V.V.V.j.<.E d O         Z.Z.  Z.Z.Z.Z.Z.Z.Z.Z.Z.Z.Z.Z.Z.",
"Z.Z.Z.Z.Z.Z.Z.Z.Z.Z.Z.Z.Z.Z.  Z.Z.            = k K | 5.s.h.x.o.X.x.h.s.<.} P k =             Z.    Z.Z.Z.Z.Z.Z.Z.Z.Z.Z.Z.Z.Z.Z.",
"Z.Z.Z.Z.Z.Z.Z.Z.Z.Z.Z.Z.Z.Z.Z.Z.      Z.              # 0 i x k k x i 0 =                       Z.Z.Z.Z.Z.Z.Z.Z.Z.Z.Z.Z.Z.Z.Z.Z.",
"Z.Z.Z.Z.Z.Z.Z.Z.Z.Z.Z.Z.Z.Z.Z.Z.Z.Z.  Z.Z.Z.Z.                                    Z.Z.Z.    Z.Z.Z.Z.Z.Z.Z.Z.Z.Z.Z.Z.Z.Z.Z.Z.Z.Z.",
"Z.Z.Z.Z.Z.Z.Z.Z.Z.Z.Z.Z.Z.Z.Z.Z.Z.Z.Z.Z.    Z.Z.Z.Z.                        Z.Z.Z.Z.    Z.Z.Z.Z.Z.Z.Z.Z.Z.Z.Z.Z.Z.Z.Z.Z.Z.Z.Z.Z.",
"Z.Z.Z.Z.Z.Z.Z.Z.Z.Z.Z.Z.Z.Z.Z.Z.Z.Z.Z.Z.Z.Z.            Z.Z.Z.Z.Z.Z.Z.              Z.Z.Z.Z.Z.Z.Z.Z.Z.Z.Z.Z.Z.Z.Z.Z.Z.Z.Z.Z.Z.Z.",
"Z.Z.Z.Z.Z.Z.Z.Z.Z.Z.Z.Z.Z.Z.Z.Z.Z.Z.Z.Z.Z.Z.Z.Z.Z.Z.                        Z.Z.Z.Z.Z.Z.Z.Z.Z.Z.Z.Z.Z.Z.Z.Z.Z.Z.Z.Z.Z.Z.Z.Z.Z.Z."
};
