/* XPM */
static char *bitcoin16[] = {
/* columns rows colors chars-per-pixel */
"16 16 46 1 ",
"  c #000000",
". c #010101",
"X c #020202",
"o c #0B0B0B",
"O c #0C0C0C",
"+ c #0D0D0D",
"@ c #151515",
"# c #161616",
"$ c #191919",
"% c #373737",
"& c #383838",
"* c #3C3C3C",
"= c #3D3D3D",
"- c #3E3E3E",
"; c #515151",
": c #525252",
"> c #535353",
", c #5A5A5A",
"< c #5B5B5B",
"1 c #5C5C5C",
"2 c #5D5D5D",
"3 c #828282",
"4 c #838383",
"5 c #848484",
"6 c #858585",
"7 c #868686",
"8 c #878787",
"9 c #949494",
"0 c #959595",
"q c #9A9A9A",
"w c #9B9B9B",
"e c #9C9C9C",
"r c #9D9D9D",
"t c #BBBBBB",
"y c #BCBCBC",
"u c #BDBDBD",
"i c #BEBEBE",
"p c #BFBFBF",
"a c #F0F0F0",
"s c #F1F1F1",
"d c #F3F3F3",
"f c #F7F7F7",
"g c #F8F8F8",
"h c #F9F9F9",
"j c white",
"k c None",
/* pixels */
"kkkkkk o+ kkkkkk",
"kkkk#,r00r2#kkkk",
"kk *phj38jhp* kk",
"kk*8pha%&adp8*kk",
"k#pp$;8++8;$pp#k",
"k2hd;      ;dh2k",
" qjd3      3ajq ",
"+08%+      +%80+",
"o08&+      +%80+",
" qjd3      8ajq ",
"k,hd;      ;dh2k",
"k#pp$;3++3>$tp#k",
"kk*8tha%%ahp8*kk",
"kk *phj88jhp* kk",
"kkkk#2r09q2#kkkk",
"kkkkkk o+ kkkkkk"
};
