/* XPM */
static char *bitcoin32[] = {
/* columns rows colors chars-per-pixel */
"32 32 79 1 ",
"  c #000000",
". c #010101",
"X c #080808",
"o c #0B0B0B",
"O c #0C0C0C",
"+ c #0D0D0D",
"@ c #0E0E0E",
"# c #0F0F0F",
"$ c #101010",
"% c #111111",
"& c #151515",
"* c #1B1B1B",
"= c #1C1C1C",
"- c #292929",
"; c #333333",
": c #383838",
"> c #393939",
", c #3A3A3A",
"< c #404040",
"1 c #424242",
"2 c #4A4A4A",
"3 c #4B4B4B",
"4 c #4F4F4F",
"5 c #505050",
"6 c #555555",
"7 c #565656",
"8 c #575757",
"9 c #585858",
"0 c #5D5D5D",
"q c #5E5E5E",
"w c #5F5F5F",
"e c #606060",
"r c #616161",
"t c #6D6D6D",
"y c #6F6F6F",
"u c #787878",
"i c #797979",
"p c #808080",
"a c #818181",
"s c #828282",
"d c #838383",
"f c #919191",
"g c #929292",
"h c #939393",
"j c #959595",
"k c #969696",
"l c #B7B7B7",
"z c #B8B8B8",
"x c #B9B9B9",
"c c #BCBCBC",
"v c #BDBDBD",
"b c #BEBEBE",
"n c #BFBFBF",
"m c #C0C0C0",
"M c #C1C1C1",
"N c #C2C2C2",
"B c #C7C7C7",
"V c #C8C8C8",
"C c #C9C9C9",
"Z c #CACACA",
"A c #CFCFCF",
"S c #D0D0D0",
"D c #D1D1D1",
"F c #EDEDED",
"G c #EEEEEE",
"H c #EFEFEF",
"J c #F0F0F0",
"K c #F4F4F4",
"L c #F5F5F5",
"P c #F6F6F6",
"I c #F7F7F7",
"U c #F8F8F8",
"Y c #F9F9F9",
"T c #FBFBFB",
"R c #FCFCFC",
"E c #FDFDFD",
"W c #FEFEFE",
"Q c #FFFFFF",
"! c None",
/* pixels */
"!!!!!!!!!!!!!  !!  !!!!!!!!!!!!!",
"!!!!!!!!! !          !!!!!!!!!!!",
"!!!!!!!!   +;qdiide;+   !!!!!!!!",
"!!!!!!!  *yNFWWgkWWFNy*  !!!!!!!",
"!!!!!  XqDWWWWP11PWWWWDqX  !!!!!",
"!!!!! &kPWWWWWC%%CWWWWWYk&  !!!!",
"!!!! &yCWWWWWWi  aWWWWWYCy& !!!!",
"!!! XkB-eNYWWF,  ,JWWYNq-CkX !!!",
"!!  qPWq %8xYnX  XnYx8+ eYPq  !!",
"!! =DWWn%  +44    45X  %NWWD= !!",
"!! yWWWY8              8YWWWy !!",
"! +nWWWWl+            +lWWWWN+ !",
"  ;FWWWWP4            5PWWWWF; !",
"  eWWWWJn2            4nJWWWWq  ",
"! aWPCa,X              X,aCPWa  ",
"! ik1%                    +1gi !",
"! ik1+                    %1ki !",
"  aWJCa,X              +,aCPWa  ",
"  eWWWWJn4            2nJWWWWe  ",
"! ;FWWWWP4            4PWWWWF; !",
"! +NWWWWx+            XxWWWWN+ !",
"!! yWWWY8              8YWWWy !!",
"!! =AWWN%  +42    25+  %NWWD= !!",
"!!  qPWe +8lYn+  +nYx8% eYPq  !!",
"!!! XkC-qNPWWJ,  ,FWWYNq-CkX !!!",
"!!!! &yBWWWWWWa  aWWWWWWCy& !!!!",
"!!!!  &kPWWWWWC%%BWWWWWPk&  !!!!",
"!!!!!  XqDWWWWP1,PWWWWDqX  !!!!!",
"!!!!!!!  =yNFWWkgWWFNy*  !!!!!!!",
"!!!!!!!!   +;eaiide;+   !!!!!!!!",
"!!!!!!!!!!!          !!!!!!!!!!!",
"!!!!!!!!!!!!!  !!  !!!!!!!!!!!!!"
};
